<svg
    xmlns="http://www.w3.org/2000/svg"
    width="32"
    height="32"
    viewBox="0 0 32 32"
    fill="none">
    <g clip-path="url(#clip0_0_690)">
        <path
            d="M7.24266 16L3.63808 19.6046L0.0244141 16L3.629 12.3954L7.24266 16ZM16.0044 7.23821L22.1876 13.4214L25.7922 9.8168L16.0044 0.0199585L6.20759 9.8168L9.81218 13.4214L16.0044 7.23821ZM28.3708 12.3954L24.7662 16L28.3708 19.6046L31.9754 16L28.3708 12.3954ZM16.0044 24.7618L9.82126 18.5786L6.21667 22.1832L16.0044 31.98L25.7922 22.1832L22.1876 18.5786L16.0044 24.7618ZM16.0044 19.6046L19.609 16L16.0044 12.3954L12.3908 16L16.0044 19.6046Z"
            fill="#F0B90B"
        />
    </g>
    <defs>
        <clipPath id="clip0_0_690">
            <rect
                width="32"
                height="32"
                fill="white"
            />
        </clipPath>
    </defs>
</svg>