<svg width="24" height="33" viewBox="0 0 24 33" fill="none" xmlns="http://www.w3.org/2000/svg">
<path fill-rule="evenodd" clip-rule="evenodd" d="M14.555 1.54302C13.125 -0.561976 9.98902 -0.502976 8.64002 1.65502L0.531024 14.63C0.177816 15.1948 -0.00638722 15.8488 0.000169114 16.5149C0.00672545 17.181 0.203768 17.8313 0.568024 18.389L9.05502 31.403C10.445 33.533 13.581 33.533 14.97 31.403L23.432 18.428C23.8085 17.8514 24.006 17.1762 23.9996 16.4876C23.9932 15.7989 23.7832 15.1276 23.396 14.558L14.555 1.54302ZM15.523 9.23002C15.218 14.667 10.928 19.046 5.51102 19.524L12.013 29.494L20.475 16.52L15.523 9.23002Z" fill="#0057FF"/>
</svg>
