<svg width="28" height="28" viewBox="0 0 28 28" fill="none" xmlns="http://www.w3.org/2000/svg">
    <g clip-path="url(#clip0_502_28)">
<path d="M14 0C6.28043 0 0 6.28043 0 14C0 21.719 6.28043 28 14 28C21.719 28 28 21.719 28 14C28 6.28043 21.7201 0 14 0Z" fill="#1D1D1D"/>
<path d="M17.4818 14.4928H15.2041V22.611H11.829C11.829 22.611 11.829 18.1752 11.829 14.4928H10.2246V11.6235H11.829V9.76767C11.829 8.4385 12.4606 6.36157 15.2351 6.36157L17.7361 6.37115V9.15638C17.7361 9.15638 16.2163 9.15638 15.9208 9.15638C15.6253 9.15638 15.2052 9.30413 15.2052 9.93798V11.6241H17.7767L17.4818 14.4928Z" fill="white"/>
</g>
<defs>
<clipPath id="clip0_502_28">
<rect width="28" height="28" fill="white"/>
</clipPath>
</defs>
</svg>
