<svg width="28" height="28" viewBox="0 0 28 28" fill="none" xmlns="http://www.w3.org/2000/svg">
<g clip-path="url(#clip0_502_3)">
<path d="M14 28C21.732 28 28 21.732 28 14C28 6.26801 21.732 0 14 0C6.26801 0 0 6.26801 0 14C0 21.732 6.26801 28 14 28Z" fill="#1D1D1D"/>
<path d="M17.9997 6H9.9999C7.80015 6 6 7.80015 6 9.9999V18.0001C6 20.1993 7.80015 22 9.9999 22H17.9997C20.1995 22 21.9996 20.1993 21.9996 18.0001V9.9999C21.9996 7.80015 20.1995 6 17.9997 6ZM20.6662 18.0001C20.6662 19.4701 19.4705 20.6666 17.9997 20.6666H9.9999C8.52974 20.6666 7.33337 19.4701 7.33337 18.0001V9.9999C7.33337 8.52955 8.52974 7.33337 9.9999 7.33337H17.9997C19.4705 7.33337 20.6662 8.52955 20.6662 9.9999V18.0001Z" fill="white"/>
<path d="M18.332 10.666C18.8843 10.666 19.332 10.2183 19.332 9.66599C19.332 9.11372 18.8843 8.66602 18.332 8.66602C17.7797 8.66602 17.332 9.11372 17.332 9.66599C17.332 10.2183 17.7797 10.666 18.332 10.666Z" fill="white"/>
<path d="M13.9999 10C11.7903 10 10 11.7905 10 13.9999C10 16.2084 11.7903 18.0002 13.9999 18.0002C16.2088 18.0002 17.9998 16.2084 17.9998 13.9999C17.9998 11.7905 16.2088 10 13.9999 10ZM13.9999 16.6668C12.5273 16.6668 11.3334 15.4729 11.3334 13.9999C11.3334 12.5269 12.5273 11.3334 13.9999 11.3334C15.4725 11.3334 16.6664 12.5269 16.6664 13.9999C16.6664 15.4729 15.4725 16.6668 13.9999 16.6668Z" fill="white"/>
</g>
<defs>
<clipPath id="clip0_502_3">
<rect width="28" height="28" fill="white"/>
</clipPath>
</defs>
</svg>
