<svg width="28" height="28" viewBox="0 0 28 28" fill="none" xmlns="http://www.w3.org/2000/svg">
<g clip-path="url(#clip0_502_8)">
<path d="M14 0C6.2692 0 0 6.2692 0 14C0 21.7308 6.2692 28 14 28C21.7308 28 28 21.7308 28 14C28 6.2692 21.7308 0 14 0Z" fill="#1D1D1D"/>
<path d="M9.93209 21.164H6.52246V10.906H9.93209V21.164Z" fill="white"/>
<path d="M8.22668 9.50537H8.20446C7.0603 9.50537 6.32031 8.71774 6.32031 7.73337C6.32031 6.72678 7.08294 5.96094 8.24932 5.96094C9.41571 5.96094 10.1335 6.72678 10.1557 7.73337C10.1557 8.71774 9.41571 9.50537 8.22668 9.50537Z" fill="white"/>
<path d="M22.2259 21.1641H18.8167V15.6763C18.8167 14.2971 18.323 13.3566 17.0893 13.3566C16.1475 13.3566 15.5865 13.991 15.34 14.6035C15.2498 14.8227 15.2278 15.129 15.2278 15.4355V21.1641H11.8184C11.8184 21.1641 11.863 11.8685 11.8184 10.9061H15.2278V12.3585C15.6809 11.6595 16.4916 10.6653 18.3006 10.6653C20.5438 10.6653 22.2259 12.1314 22.2259 15.2822V21.1641Z" fill="white"/>
</g>
<defs>
<clipPath id="clip0_502_8">
<rect width="28" height="28" fill="white"/>
</clipPath>
</defs>
</svg>
