<svg width="28" height="28" viewBox="0 0 28 28" fill="none" xmlns="http://www.w3.org/2000/svg">
<g clip-path="url(#clip0_502_13)">
<path d="M14 28C21.7338 28 28 21.7338 28 14C28 6.26617 21.7338 0 14 0C6.26617 0 0 6.26617 0 14C0 21.7338 6.26617 28 14 28Z" fill="#1D1D1D"/>
<path d="M6.40599 13.6967L19.9043 8.49217C20.5308 8.26583 21.078 8.645 20.875 9.59233L20.8761 9.59117L18.5778 20.419C18.4075 21.1867 17.9513 21.3733 17.3131 21.0117L13.8131 18.4322L12.125 20.0585C11.9383 20.2452 11.7808 20.4027 11.4191 20.4027L11.6676 16.8408L18.1543 10.9807C18.4366 10.7322 18.0913 10.5922 17.7191 10.8395L9.70299 15.8865L6.24732 14.8085C5.49715 14.5705 5.48082 14.0583 6.40599 13.6967Z" fill="white"/>
</g>
<defs>
<clipPath id="clip0_502_13">
<rect width="28" height="28" fill="white"/>
</clipPath>
</defs>
</svg>
