<svg width="28" height="28" viewBox="0 0 28 28" fill="none" xmlns="http://www.w3.org/2000/svg">
<g clip-path="url(#clip0_502_16)">
<path d="M14 28C21.732 28 28 21.732 28 14C28 6.26801 21.732 0 14 0C6.26801 0 0 6.26801 0 14C0 21.732 6.26801 28 14 28Z" fill="#1D1D1D"/>
<path d="M21.0732 10.7617C20.2171 10.7617 19.4273 10.4781 18.793 9.99971C18.0655 9.45127 17.5429 8.64678 17.3583 7.71953C17.3126 7.49043 17.288 7.254 17.2857 7.01172H14.8403V13.6938L14.8373 17.3538C14.8373 18.3323 14.2001 19.162 13.3168 19.4538C13.0605 19.5385 12.7836 19.5786 12.4953 19.5628C12.1274 19.5426 11.7825 19.4315 11.4828 19.2522C10.845 18.8708 10.4126 18.1788 10.4009 17.3872C10.3824 16.15 11.3826 15.1413 12.619 15.1413C12.863 15.1413 13.0974 15.1812 13.3168 15.2535V13.4271V12.7706C13.0854 12.7363 12.8498 12.7185 12.6116 12.7185C11.2584 12.7185 9.99279 13.281 9.0881 14.2943C8.40432 15.0602 7.99416 16.0372 7.93088 17.0617C7.84797 18.4076 8.34045 19.687 9.29553 20.631C9.43586 20.7695 9.58322 20.8981 9.73732 21.0168C10.5562 21.647 11.5572 21.9886 12.6116 21.9886C12.8498 21.9886 13.0854 21.971 13.3168 21.9367C14.3018 21.7908 15.2106 21.3399 15.9278 20.631C16.809 19.76 17.2959 18.6036 17.3012 17.3729L17.2886 11.9072C17.709 12.2315 18.1687 12.4999 18.662 12.7082C19.4293 13.0319 20.2429 13.196 21.0802 13.1957V11.42V10.7611L21.0732 10.7617Z" fill="white"/>
</g>
<defs>
<clipPath id="clip0_502_16">
<rect width="28" height="28" fill="white"/>
</clipPath>
</defs>
</svg>
