<svg width="28" height="28" viewBox="0 0 28 28" fill="none" xmlns="http://www.w3.org/2000/svg">
<g clip-path="url(#clip0_502_24)">
<path d="M14 28C21.732 28 28 21.732 28 14C28 6.26801 21.732 0 14 0C6.26801 0 0 6.26801 0 14C0 21.732 6.26801 28 14 28Z" fill="#1D1D1D"/>
<path d="M23 9.53923C22.4116 9.79988 21.7795 9.97599 21.115 10.0556C21.7929 9.64983 22.313 9.00596 22.5582 8.23951C21.924 8.61569 21.2214 8.88902 20.4738 9.03555C19.8748 8.39872 19.0222 8 18.078 8C16.2656 8 14.7956 9.46949 14.7956 11.2828C14.7956 11.5392 14.8252 11.7886 14.8802 12.0295C12.1511 11.8921 9.73337 10.5853 8.11407 8.6002C7.8322 9.08627 7.67013 9.64983 7.67013 10.25C7.67013 11.3884 8.25007 12.3937 9.13019 12.9819C8.59183 12.9643 8.08588 12.8171 7.64335 12.5712V12.6135C7.64335 14.2034 8.77433 15.5299 10.2767 15.8314C10.0004 15.9061 9.71083 15.9455 9.41205 15.9455C9.20065 15.9455 8.99419 15.9258 8.79406 15.8878C9.21193 17.191 10.4239 18.1406 11.8607 18.166C10.7368 19.0465 9.32115 19.5714 7.78358 19.5714C7.51863 19.5714 7.2572 19.5559 7 19.5256C8.45301 20.4576 10.178 21 12.0313 21C18.0702 21 21.3715 15.9998 21.3715 11.6632C21.3715 11.5223 21.368 11.38 21.3617 11.2391C22.0029 10.7755 22.5596 10.1986 22.9986 9.54135L23 9.53923Z" fill="white"/>
</g>
<defs>
<clipPath id="clip0_502_24">
<rect width="28" height="28" fill="white"/>
</clipPath>
</defs>
</svg>
