<svg width="28" height="28" viewBox="0 0 28 28" fill="none" xmlns="http://www.w3.org/2000/svg">
<g clip-path="url(#clip0_502_19)">
<path d="M14 28C21.732 28 28 21.732 28 14C28 6.26801 21.732 0 14 0C6.26801 0 0 6.26801 0 14C0 21.732 6.26801 28 14 28Z" fill="#1D1D1D"/>
<path d="M22.6291 9.67907C22.4216 8.90797 21.8137 8.30015 21.0427 8.09251C19.6341 7.70703 13.9998 7.70703 13.9998 7.70703C13.9998 7.70703 8.36565 7.70703 6.95707 8.07782C6.20094 8.28532 5.57815 8.90811 5.37065 9.67907C5 11.0875 5 14.0085 5 14.0085C5 14.0085 5 16.9442 5.37065 18.3379C5.57829 19.1089 6.18611 19.7168 6.95721 19.9245C8.38048 20.3099 14 20.3099 14 20.3099C14 20.3099 19.6341 20.3099 21.0427 19.9392C21.8138 19.7317 22.4216 19.1237 22.6293 18.3527C23 16.9442 23 14.0233 23 14.0233C23 14.0233 23.0148 11.0875 22.6291 9.67907Z" fill="white"/>
<path d="M12.207 16.7066L16.8923 14.0081L12.207 11.3096V16.7066Z" fill="black"/>
</g>
<defs>
<clipPath id="clip0_502_19">
<rect width="28" height="28" fill="white"/>
</clipPath>
</defs>
</svg>
